<mxfile host="app.diagrams.net" modified="2023-10-04T11:09:59.615Z" agent="Mozilla/5.0 (Macintosh; Intel Mac OS X 10_15_7) AppleWebKit/537.36 (KHTML, like Gecko) Chrome/117.0.0.0 Safari/537.36" version="22.0.2" etag="brpuuwzSULY-YARUWQqI" type="github">
  <diagram name="PÃ¡gina-1" id="_X7M-crHDyrQfwzhrV1P">
    <mxGraphModel>
      <root>
        <mxCell id="0" />
        <mxCell id="1" parent="0" />
      </root>
    </mxGraphModel>
  </diagram>
</mxfile>
